<svg xmlns="http://www.w3.org/2000/svg" xmlns:xlink="http://www.w3.org/1999/xlink" width="820" height="454" viewBox="0 0 820 454">
  <defs>
    <clipPath id="clip-error_404">
      <rect width="820" height="454"/>
    </clipPath>
  </defs>
  <g id="error_404" data-name="error 404" clip-path="url(#clip-error_404)">
    <rect width="820" height="454" fill="rgba(255,255,255,0)"/>
    <path id="Path_44" data-name="Path 44" d="M23.9,31.448H9.594V42.167H26.318V47H3.541V12.164h22.61v4.881H9.594v9.618H23.9Zm20.337-5.024a14.387,14.387,0,0,0-2.369-.191q-4,0-5.383,3.063V47H30.673V21.112h5.551l.144,2.9a6.551,6.551,0,0,1,5.838-3.374,5.443,5.443,0,0,1,2.058.335Zm17.227,0a14.387,14.387,0,0,0-2.369-.191q-4,0-5.383,3.063V47H47.9V21.112H53.45l.144,2.9a6.551,6.551,0,0,1,5.838-3.374,5.443,5.443,0,0,1,2.058.335Zm1.723,7.393A15.265,15.265,0,0,1,64.7,26.962a11.009,11.009,0,0,1,4.235-4.689A11.932,11.932,0,0,1,75.2,20.634,11.308,11.308,0,0,1,83.7,24.007a13.269,13.269,0,0,1,3.529,8.948l.024,1.364a15.4,15.4,0,0,1-1.471,6.843,10.876,10.876,0,0,1-4.211,4.666,12.02,12.02,0,0,1-6.328,1.651,11.23,11.23,0,0,1-8.769-3.649q-3.29-3.649-3.29-9.726Zm5.814.5a10.431,10.431,0,0,0,1.651,6.257,5.367,5.367,0,0,0,4.594,2.261,5.308,5.308,0,0,0,4.582-2.3q1.639-2.3,1.639-6.723A10.3,10.3,0,0,0,79.781,27.6a5.685,5.685,0,0,0-9.1-.036Q69,29.821,69,34.319Zm36.726-7.9a14.387,14.387,0,0,0-2.369-.191q-4,0-5.383,3.063V47H92.162V21.112h5.551l.144,2.9a6.551,6.551,0,0,1,5.838-3.374,5.443,5.443,0,0,1,2.058.335Z" transform="translate(170 62)" fill="#fff"/>
    <path id="Path_45" data-name="Path 45" d="M137.414,221.5h30.773v23H137.414V296H109.078V244.508h-101V227.9L107.4,74.188h30.012Zm-97.348,0h69.012V112.73l-3.352,6.094Zm292.652-20.109q0,27.27-4.875,45.932T313.9,277.49a51.469,51.469,0,0,1-21.937,16.529,86.06,86.06,0,0,1-57.967,0,51.9,51.9,0,0,1-22.09-16.529q-9.141-11.5-14.168-30.164t-5.027-45.932v-33.82q0-27.27,4.951-45.7t14.092-29.707a51.5,51.5,0,0,1,22.014-16.148,81.006,81.006,0,0,1,28.869-4.875,82.093,82.093,0,0,1,29.1,4.875,51.42,51.42,0,0,1,22.09,16.148q9.141,11.273,14.016,29.707t4.875,45.7Zm-28.184-38.543q0-18.738-2.666-31.84t-8-21.252a31.75,31.75,0,0,0-13.178-11.807,46.02,46.02,0,0,0-35.953,0,31.268,31.268,0,0,0-13.1,11.807q-5.256,8.15-8,21.252t-2.742,31.84v42.961a160.661,160.661,0,0,0,2.742,31.916q2.742,13.33,8.15,21.861a33.767,33.767,0,0,0,13.254,12.492,42.945,42.945,0,0,0,36.029,0A32.91,32.91,0,0,0,294.1,259.59q5.256-8.531,7.846-21.861a169.852,169.852,0,0,0,2.59-31.916ZM487.8,221.5h30.773v23H487.8V296H459.469V244.508h-101V227.9L457.793,74.188H487.8Zm-97.348,0h69.012V112.73l-3.352,6.094Z" transform="translate(129 62)" fill="#fff"/>
    <path id="Path_46" data-name="Path 46" d="M7.4,28.311V40H3.466V10.141H14.479a13.667,13.667,0,0,1,4.491.677,9.206,9.206,0,0,1,3.271,1.9,8.051,8.051,0,0,1,2.01,2.892,9.538,9.538,0,0,1,.687,3.661,10.148,10.148,0,0,1-.687,3.845,7.371,7.371,0,0,1-2.01,2.84,8.975,8.975,0,0,1-3.271,1.753,15.162,15.162,0,0,1-4.491.6Zm0-3.22h7.075a9.068,9.068,0,0,0,2.963-.431,5.393,5.393,0,0,0,2.03-1.2,4.657,4.657,0,0,0,1.159-1.825A7.014,7.014,0,0,0,21,19.308a6.814,6.814,0,0,0-.369-2.225,5.079,5.079,0,0,0-1.159-1.9,5.67,5.67,0,0,0-2.03-1.312,8.029,8.029,0,0,0-2.963-.492H7.4ZM42.841,40a4.11,4.11,0,0,1-.328-1.036q-.123-.625-.205-1.3a10.1,10.1,0,0,1-1.2,1.056,8.593,8.593,0,0,1-1.456.882,8.29,8.29,0,0,1-1.712.595,8.551,8.551,0,0,1-1.948.215A8.832,8.832,0,0,1,32.9,39.9,7.188,7.188,0,0,1,30.546,38.5a6.144,6.144,0,0,1-1.507-2.082,6.265,6.265,0,0,1-.533-2.574,6.822,6.822,0,0,1,.7-3.148,6.279,6.279,0,0,1,2-2.287,9.429,9.429,0,0,1,3.148-1.395,16.66,16.66,0,0,1,4.122-.472h3.773V24.8a4.261,4.261,0,0,0-1.189-3.168,4.78,4.78,0,0,0-3.507-1.179,6.267,6.267,0,0,0-1.948.287,4.964,4.964,0,0,0-1.507.769,3.585,3.585,0,0,0-.974,1.118,2.734,2.734,0,0,0-.349,1.333H28.957a4.953,4.953,0,0,1,.625-2.358,6.919,6.919,0,0,1,1.774-2.1,9.387,9.387,0,0,1,2.779-1.518,10.729,10.729,0,0,1,3.64-.584,11.483,11.483,0,0,1,3.333.461,7.113,7.113,0,0,1,2.615,1.395,6.446,6.446,0,0,1,1.7,2.328,8.021,8.021,0,0,1,.615,3.261V35.16a15.285,15.285,0,0,0,.195,2.369,8.908,8.908,0,0,0,.584,2.143V40Zm-6.3-2.892a6.322,6.322,0,0,0,1.928-.287,7.2,7.2,0,0,0,1.641-.749A6.108,6.108,0,0,0,41.4,35.017a5.172,5.172,0,0,0,.851-1.23V29.233H39.088a10.183,10.183,0,0,0-5.024,1.015A3.314,3.314,0,0,0,32.3,33.314a4.156,4.156,0,0,0,.267,1.5,3.138,3.138,0,0,0,.81,1.2,4.028,4.028,0,0,0,1.333.8A5.194,5.194,0,0,0,36.545,37.108Zm14.54-8.388a16.541,16.541,0,0,1,.6-4.625,10.732,10.732,0,0,1,1.743-3.568A7.788,7.788,0,0,1,59.842,17.4a8.5,8.5,0,0,1,3.671.738,7.436,7.436,0,0,1,2.666,2.133l.185-2.461h3.466V39.528a10.425,10.425,0,0,1-.687,3.907A8.009,8.009,0,0,1,67.2,46.327a8.39,8.39,0,0,1-2.974,1.794,11.275,11.275,0,0,1-3.814.615,11.681,11.681,0,0,1-1.979-.195,11.9,11.9,0,0,1-2.256-.636A10.12,10.12,0,0,1,54,46.727,7.083,7.083,0,0,1,52.213,44.9l1.969-2.276a8.9,8.9,0,0,0,1.436,1.436,7.786,7.786,0,0,0,1.487.923,6.7,6.7,0,0,0,1.518.5,7.774,7.774,0,0,0,1.528.154,7.307,7.307,0,0,0,2.42-.379,4.9,4.9,0,0,0,1.856-1.138A5.049,5.049,0,0,0,65.6,42.266a7.274,7.274,0,0,0,.41-2.553V37.785a7.466,7.466,0,0,1-2.635,1.948,8.773,8.773,0,0,1-3.579.677,7.656,7.656,0,0,1-3.6-.841,8.135,8.135,0,0,1-2.748-2.348A11.154,11.154,0,0,1,51.7,33.653a15.682,15.682,0,0,1-.615-4.5Zm3.814.431a13.881,13.881,0,0,0,.338,3.127,7.891,7.891,0,0,0,1.046,2.553,5.047,5.047,0,0,0,4.46,2.358,6.233,6.233,0,0,0,1.815-.246,5.477,5.477,0,0,0,1.456-.677,5.247,5.247,0,0,0,1.138-1.025,7.253,7.253,0,0,0,.861-1.312V23.8a7.609,7.609,0,0,0-.861-1.261,5.382,5.382,0,0,0-1.138-1.015,5.28,5.28,0,0,0-1.446-.667,6.3,6.3,0,0,0-1.784-.236,5.2,5.2,0,0,0-2.666.646,5.389,5.389,0,0,0-1.825,1.753,7.994,7.994,0,0,0-1.056,2.574,13.881,13.881,0,0,0-.338,3.127ZM84.759,40.41a10.594,10.594,0,0,1-4.194-.8,9.36,9.36,0,0,1-3.209-2.225A9.833,9.833,0,0,1,75.3,33.991a12.486,12.486,0,0,1-.718-4.307v-.861a13.558,13.558,0,0,1,.81-4.84,10.864,10.864,0,0,1,2.164-3.589,9.355,9.355,0,0,1,3.1-2.225,8.9,8.9,0,0,1,3.63-.769,9.361,9.361,0,0,1,4.1.831,7.779,7.779,0,0,1,2.84,2.287,9.72,9.72,0,0,1,1.651,3.445,16.675,16.675,0,0,1,.533,4.327v1.7H78.381a9.5,9.5,0,0,0,.5,2.871A7,7,0,0,0,80.2,35.181a6.111,6.111,0,0,0,4.768,2.133,6.608,6.608,0,0,0,3.4-.82,8.554,8.554,0,0,0,2.44-2.174l2.317,1.8a10.134,10.134,0,0,1-1.292,1.589,8.812,8.812,0,0,1-1.774,1.374,9.333,9.333,0,0,1-2.328.964A11.29,11.29,0,0,1,84.759,40.41Zm-.472-19.893a5.117,5.117,0,0,0-3.835,1.641,6.567,6.567,0,0,0-1.261,1.989,10.083,10.083,0,0,0-.687,2.728H89.619v-.287a10.5,10.5,0,0,0-.359-2.194,5.959,5.959,0,0,0-.923-1.948,4.756,4.756,0,0,0-1.61-1.395A5.074,5.074,0,0,0,84.287,20.518ZM131.742,40h-3.958L112.752,16.99V40h-3.958V10.141h3.958l15.073,23.112V10.141h3.917Zm5.394-11.3a13.716,13.716,0,0,1,.708-4.481,10.827,10.827,0,0,1,2.01-3.579,9.2,9.2,0,0,1,3.168-2.379,9.868,9.868,0,0,1,4.184-.861,10.039,10.039,0,0,1,4.235.861,9.276,9.276,0,0,1,3.189,2.379,10.591,10.591,0,0,1,2.01,3.579,13.9,13.9,0,0,1,.7,4.481v.451a13.9,13.9,0,0,1-.7,4.481,10.478,10.478,0,0,1-2.01,3.568,9.247,9.247,0,0,1-3.179,2.358,10.809,10.809,0,0,1-8.408,0,9.247,9.247,0,0,1-3.179-2.358,10.613,10.613,0,0,1-2.02-3.568,13.716,13.716,0,0,1-.708-4.481Zm3.814.451a12.254,12.254,0,0,0,.39,3.138,7.979,7.979,0,0,0,1.179,2.594,5.893,5.893,0,0,0,1.969,1.774,6.1,6.1,0,0,0,5.506,0,5.765,5.765,0,0,0,1.969-1.774,8.275,8.275,0,0,0,1.179-2.594,11.957,11.957,0,0,0,.4-3.138V28.7a11.992,11.992,0,0,0-.4-3.127,8.129,8.129,0,0,0-1.189-2.6,5.964,5.964,0,0,0-1.979-1.784,5.569,5.569,0,0,0-2.769-.667,5.412,5.412,0,0,0-2.728.667,6.032,6.032,0,0,0-1.958,1.784,7.97,7.97,0,0,0-1.179,2.6,12.29,12.29,0,0,0-.39,3.127Zm26.291-16.714v5.373h4.143v2.933h-4.143V34.5a3.865,3.865,0,0,0,.205,1.384,1.988,1.988,0,0,0,.543.81,1.734,1.734,0,0,0,.779.379,4.444,4.444,0,0,0,.913.092,5.73,5.73,0,0,0,.995-.092q.523-.092.81-.154V40q-.451.123-1.169.267a9.044,9.044,0,0,1-1.743.144,6.479,6.479,0,0,1-1.979-.3,3.987,3.987,0,0,1-1.63-.995,4.9,4.9,0,0,1-1.107-1.835,8.316,8.316,0,0,1-.41-2.8V20.743h-4.04V17.811h4.04V12.438Zm36.032,14.376h-12.53V40h-3.937V10.141h18.5v3.24H190.743V23.594h12.53ZM207.99,28.7a13.716,13.716,0,0,1,.708-4.481,10.827,10.827,0,0,1,2.01-3.579,9.2,9.2,0,0,1,3.168-2.379,9.868,9.868,0,0,1,4.184-.861,10.039,10.039,0,0,1,4.235.861,9.276,9.276,0,0,1,3.189,2.379,10.591,10.591,0,0,1,2.01,3.579,13.9,13.9,0,0,1,.7,4.481v.451a13.9,13.9,0,0,1-.7,4.481,10.478,10.478,0,0,1-2.01,3.568,9.247,9.247,0,0,1-3.179,2.358,10.809,10.809,0,0,1-8.408,0,9.247,9.247,0,0,1-3.179-2.358,10.613,10.613,0,0,1-2.02-3.568,13.716,13.716,0,0,1-.708-4.481Zm3.814.451a12.254,12.254,0,0,0,.39,3.138,7.979,7.979,0,0,0,1.179,2.594,5.893,5.893,0,0,0,1.969,1.774,6.1,6.1,0,0,0,5.506,0,5.765,5.765,0,0,0,1.969-1.774A8.275,8.275,0,0,0,224,32.289a11.957,11.957,0,0,0,.4-3.138V28.7a11.992,11.992,0,0,0-.4-3.127,8.129,8.129,0,0,0-1.189-2.6,5.964,5.964,0,0,0-1.979-1.784,5.569,5.569,0,0,0-2.769-.667,5.412,5.412,0,0,0-2.728.667,6.032,6.032,0,0,0-1.958,1.784,7.97,7.97,0,0,0-1.179,2.6,12.29,12.29,0,0,0-.39,3.127Zm34.843,8.654A7.071,7.071,0,0,1,244,39.723a9.745,9.745,0,0,1-3.855.687,9.048,9.048,0,0,1-2.974-.461,5.788,5.788,0,0,1-2.3-1.456,6.628,6.628,0,0,1-1.487-2.563,12.039,12.039,0,0,1-.523-3.784V17.811h3.794V32.187a7.433,7.433,0,0,0,.349,2.471,4.011,4.011,0,0,0,.923,1.538,3.085,3.085,0,0,0,1.313.779,5.392,5.392,0,0,0,1.518.215,6.928,6.928,0,0,0,3.722-.882,5.255,5.255,0,0,0,2.061-2.358V17.811h3.794V40h-3.609Zm13.043-20,.123,2.789a8.576,8.576,0,0,1,2.871-2.348,8.237,8.237,0,0,1,3.773-.851,9.173,9.173,0,0,1,2.933.441,5.393,5.393,0,0,1,2.235,1.415,6.55,6.55,0,0,1,1.425,2.5,11.936,11.936,0,0,1,.5,3.7V40H269.76V25.419a7.4,7.4,0,0,0-.287-2.2,3.637,3.637,0,0,0-.851-1.487,3.354,3.354,0,0,0-1.395-.841,6.278,6.278,0,0,0-1.917-.267,5.476,5.476,0,0,0-3.24.984,6.685,6.685,0,0,0-2.174,2.584V40H256.1V17.811Zm18.662,10.91a16.033,16.033,0,0,1,.625-4.625,10.908,10.908,0,0,1,1.774-3.568,8.109,8.109,0,0,1,2.758-2.307,7.812,7.812,0,0,1,3.6-.82,8.533,8.533,0,0,1,3.548.687,7.493,7.493,0,0,1,2.625,1.979V8.5h3.794V40H293.59l-.185-2.379a7.414,7.414,0,0,1-2.666,2.071,8.705,8.705,0,0,1-3.671.718,7.568,7.568,0,0,1-3.558-.841,8.234,8.234,0,0,1-2.758-2.348,11.186,11.186,0,0,1-1.774-3.568,15.442,15.442,0,0,1-.625-4.5Zm3.794.431a13.881,13.881,0,0,0,.338,3.127,7.754,7.754,0,0,0,1.056,2.553,5.363,5.363,0,0,0,1.825,1.723,5.227,5.227,0,0,0,2.646.636,6.378,6.378,0,0,0,1.8-.236,5.28,5.28,0,0,0,1.446-.667,5.464,5.464,0,0,0,1.148-1.025,6.951,6.951,0,0,0,.872-1.312V23.758a7.251,7.251,0,0,0-.861-1.251,5.291,5.291,0,0,0-1.138-.995,5.469,5.469,0,0,0-1.446-.656,6.3,6.3,0,0,0-1.784-.236,5.26,5.26,0,0,0-2.676.646,5.359,5.359,0,0,0-1.835,1.753,7.994,7.994,0,0,0-1.056,2.574,13.881,13.881,0,0,0-.338,3.127Z" transform="translate(289 69)" fill="#fff"/>
  </g>
</svg>
