<?xml version="1.0" standalone="no"?><!-- Generator: Gravit.io --><svg xmlns="http://www.w3.org/2000/svg" xmlns:xlink="http://www.w3.org/1999/xlink" style="isolation:isolate" viewBox="0 0 512 512" width="512" height="512"><defs><clipPath id="_clipPath_UyUHefbEtbGf3Mbsax4vF78L23DIenrB"><rect width="512" height="512"/></clipPath></defs><g clip-path="url(#_clipPath_UyUHefbEtbGf3Mbsax4vF78L23DIenrB)"><path d=" M 75 512 L 242 512 L 242 330 L 182 330 L 182 270 L 242 270 L 242 195 C 242 153.645 275.645 120 317 120 L 392 120 L 392 180 L 332 180 C 315.457 180 302 193.457 302 210 L 302 270 L 389.293 270 L 379.293 330 L 302 330 L 302 512 L 437 512 C 478.355 512 512 478.355 512 437 L 512 75 C 512 33.645 478.355 0 437 0 L 75 0 C 33.645 0 0 33.645 0 75 L 0 437 C 0 478.355 33.645 512 75 512 Z  M 30 75 C 30 50.188 50.188 30 75 30 L 437 30 C 461.813 30 482 50.188 482 75 L 482 437 C 482 461.813 461.813 482 437 482 L 332 482 L 332 360 L 404.707 360 L 424.707 240 L 332 240 L 332 210 L 422 210 L 422 90 L 317 90 C 259.102 90 212 137.102 212 195 L 212 240 L 152 240 L 152 360 L 212 360 L 212 482 L 75 482 C 50.188 482 30 461.813 30 437 L 30 75 Z " fill="rgb(255,255,255)"/></g></svg>