<?xml version="1.0" standalone="no"?><!-- Generator: Gravit.io --><svg xmlns="http://www.w3.org/2000/svg" xmlns:xlink="http://www.w3.org/1999/xlink" style="isolation:isolate" viewBox="0 0 512 512" width="512" height="512"><defs><clipPath id="_clipPath_35XZDOEARZrIOOpSJfEHRaVf9NUSDYHF"><rect width="512" height="512"/></clipPath></defs><g clip-path="url(#_clipPath_35XZDOEARZrIOOpSJfEHRaVf9NUSDYHF)"><path d=" M 75 512 L 437 512 C 478.355 512 512 478.355 512 437 L 512 75 C 512 33.645 478.355 0 437 0 L 75 0 C 33.645 0 0 33.645 0 75 L 0 437 C 0 478.355 33.645 512 75 512 Z  M 30 75 C 30 50.188 50.188 30 75 30 L 437 30 C 461.813 30 482 50.188 482 75 L 482 437 C 482 461.813 461.813 482 437 482 L 75 482 C 50.188 482 30 461.813 30 437 L 30 75 Z " fill="rgb(255,255,255)"/><path d=" M 256 391 C 330.438 391 391 330.438 391 256 C 391 181.563 330.438 121 256 121 C 181.563 121 121 181.563 121 256 C 121 330.438 181.563 391 256 391 Z  M 256 151 C 313.898 151 361 198.102 361 256 C 361 313.898 313.898 361 256 361 C 198.102 361 151 313.898 151 256 C 151 198.102 198.102 151 256 151 Z " fill="rgb(255,255,255)"/><path d=" M 406 151 C 430.813 151 451 130.813 451 106 C 451 81.188 430.813 61 406 61 C 381.188 61 361 81.188 361 106 C 361 130.813 381.188 151 406 151 Z  M 406 91 C 414.27 91 421 97.73 421 106 C 421 114.27 414.27 121 406 121 C 397.73 121 391 114.27 391 106 C 391 97.73 397.73 91 406 91 Z " fill="rgb(255,255,255)"/></g></svg>