<?xml version="1.0" standalone="no"?><!-- Generator: Gravit.io --><svg xmlns="http://www.w3.org/2000/svg" xmlns:xlink="http://www.w3.org/1999/xlink" style="isolation:isolate" viewBox="0 0 512 557" width="512" height="557"><defs><clipPath id="_clipPath_14RiZ96Q2ZIQYEWTWS3e7TQTKBCxiauP"><rect width="512" height="557"/></clipPath></defs><g clip-path="url(#_clipPath_14RiZ96Q2ZIQYEWTWS3e7TQTKBCxiauP)"><path d=" M 194.816 490.211 C 109.363 490.211 41.824 475.281 9.512 449.258 L 8.883 448.75 L 8.312 448.18 C 0.637 440.5 -1.879 430.426 1.418 420.543 L 1.719 419.723 C 5.719 409.719 15.52 402.984 26.141 402.922 C 48 402.543 67.125 399.937 84.48 394.879 C 56.797 382.004 37.566 359.711 26.125 327.445 C 22.277 317.383 25.598 306.227 34.465 299.574 C 36.652 297.93 39.125 296.688 41.742 295.855 C 26.359 278.098 14.996 257.891 8.633 236.52 L 8.434 235.855 L 8.297 235.176 C 6.137 224.367 10.969 213.254 19.824 208.469 C 23.539 206.336 27.574 205.23 31.625 205.137 C 27.258 195.73 24.082 186.074 22.199 176.359 C 16.973 149.438 21.285 122.449 35.012 96.145 L 38.187 89.793 C 40.73 84.711 45.59 81.141 51.191 80.231 C 56.793 79.324 62.535 81.176 66.547 85.188 L 72.332 90.981 C 118.035 138.895 158.973 161.629 229.75 177.184 C 232.91 150.016 244.656 124.762 263.605 104.887 C 286.156 81.238 316.269 67.969 348.398 67.516 L 348.609 67.516 C 372.051 67.516 401.129 80.898 418.715 90.336 C 433.801 85.398 451.976 77.754 470.836 69.672 C 479.66 65.531 490.539 67.426 497.476 74.363 C 504.277 81.164 506.164 90.754 502.555 100.074 C 501.183 103.891 499.629 107.637 497.898 111.301 C 500.48 112.484 502.844 114.09 504.84 116.086 C 510.875 122.121 513.39 131.566 511.246 140.152 L 511.015 140.969 C 503.789 164.258 489.906 183.227 471.547 195.133 C 468.48 358.418 345.519 490.211 194.816 490.211 L 194.816 490.211 Z  M 38.305 432.535 C 68.754 449.762 126.781 460.184 194.816 460.184 C 260.226 460.184 321.953 432.102 368.621 381.109 C 415.672 329.699 441.582 261.43 441.582 188.875 L 441.582 188.059 C 441.582 181.488 445.199 175.492 451.019 172.406 C 462.828 166.152 472.391 155.5 478.609 141.879 C 472.195 142.891 465.676 140.316 461.68 134.949 C 457.035 128.711 456.984 120.285 461.551 113.992 C 464.016 110.594 466.25 107.059 468.242 103.402 C 451.957 110.242 436.492 116.375 423.066 120.449 C 418.187 121.926 412.75 121.348 408.293 118.859 C 384.391 105.543 362.129 97.582 348.707 97.543 C 299.18 98.301 258.91 140.719 258.91 192.148 C 258.91 197.465 256.551 202.449 252.445 205.828 C 248.336 209.203 242.992 210.555 237.773 209.523 C 156.164 193.445 107.805 169.336 57.516 118.801 C 50.309 136.07 48.34 153.465 51.672 170.641 C 55.051 188.039 64.039 205.473 77.668 221.055 C 82.848 226.969 83.535 235.43 79.379 242.105 C 75.238 248.758 67.367 251.867 59.801 249.84 C 53.887 248.254 48.449 246.172 43.293 243.496 C 53.797 266.313 71.863 287.414 94.574 302.977 C 101.156 307.488 103.906 315.898 101.266 323.43 C 98.621 330.973 91.234 335.828 83.25 335.234 C 74.551 334.59 66.844 332.937 59.75 330.152 C 72.484 356.086 92.832 370.355 124.18 375.809 C 131.644 377.109 137.457 383.004 138.644 390.477 C 139.836 397.949 136.137 405.355 129.445 408.906 C 102.727 423.07 73.523 430.672 38.305 432.535 L 38.305 432.535 Z " fill="rgb(255,255,255)"/></g></svg>